<svg width="360" height="282" viewBox="0 0 360 282" fill="none" xmlns="http://www.w3.org/2000/svg">
<path d="M508 282V24.8399L372.376 54.8981C295.058 72.0342 214.491 67.246 139.747 41.0725L61.5297 13.683C-1.5625 -8.41017 -71.0417 -2.91295 -129.875 28.827L-141.107 34.8867C-195.455 64.2074 -259.95 68.1378 -317.457 45.6339C-364.672 27.1572 -416.976 26.3748 -464.723 43.431L-543.361 71.522C-616.139 97.5198 -696.52 91.5027 -764.616 54.9596C-832.71 18.4181 -913.087 12.3999 -985.863 38.3939L-1001.08 43.8301C-1068.58 67.9374 -1142.34 67.8988 -1209.81 43.721L-1248.07 30.0091C-1305.74 9.34333 -1369.44 13.9059 -1423.58 42.5793C-1470.46 67.4121 -1524.79 74.2875 -1576.38 61.9161L-1731 24.8399V282H508Z" fill="url(#paint0_linear_7_4)" fill-opacity="0.1"/>
<defs>
<linearGradient id="paint0_linear_7_4" x1="-612.269" y1="-20.156" x2="-612.269" y2="282" gradientUnits="userSpaceOnUse">
<stop stop-color="#F093FB"/>
<stop offset="1" stop-color="#F5576C"/>
</linearGradient>
</defs>
</svg>
