<svg width="360" height="296" viewBox="0 0 360 296" fill="none" xmlns="http://www.w3.org/2000/svg">
<path d="M1705 296V25.2605L1600.3 56.2346C1538.73 74.4491 1472.62 69.4947 1414.45 42.3064L1355.98 14.9773C1305.81 -8.47136 1246.88 -2.94973 1201.95 29.4106L1190.84 37.4099C1150.74 66.2813 1097.79 70.0667 1054 47.1922C1017.59 28.1745 974.359 27.3868 937.282 45.0658L879.251 72.7356C821.467 100.288 753.273 94.2488 701.23 56.9706C649.19 19.6941 580.999 13.6538 523.216 41.2022L514.895 45.1696C462.712 70.0479 402.081 70.009 349.931 45.0639L322.818 32.0947C276.936 10.1481 222.771 14.7426 181.242 44.1038C145.258 69.5443 99.4137 76.6051 57.4423 63.1711L-61 25.2605V296H1705Z" fill="url(#paint0_linear_7_3)" fill-opacity="0.2"/>
<defs>
<linearGradient id="paint0_linear_7_3" x1="821.393" y1="-23" x2="821.393" y2="296.889" gradientUnits="userSpaceOnUse">
<stop stop-color="#FFD1FF"/>
<stop offset="1" stop-color="#FAA7B2"/>
</linearGradient>
</defs>
</svg>
