<?xml version="1.0" standalone="no"?><svg xmlns="http://www.w3.org/2000/svg" viewBox="0 0 1440 320"><path fill="#e7008a" fill-opacity="1" d="M0,192L26.7,176C53.3,160,107,128,160,144C213.3,160,267,224,320,218.7C373.3,213,427,139,480,133.3C533.3,128,587,192,640,218.7C693.3,245,747,235,800,218.7C853.3,203,907,181,960,181.3C1013.3,181,1067,203,1120,213.3C1173.3,224,1227,224,1280,218.7C1333.3,213,1387,203,1413,197.3L1440,192L1440,0L1413.3,0C1386.7,0,1333,0,1280,0C1226.7,0,1173,0,1120,0C1066.7,0,1013,0,960,0C906.7,0,853,0,800,0C746.7,0,693,0,640,0C586.7,0,533,0,480,0C426.7,0,373,0,320,0C266.7,0,213,0,160,0C106.7,0,53,0,27,0L0,0Z"></path></svg>